<svg xmlns="http://www.w3.org/2000/svg" viewBox="0 0 200 200">
  <rect width="200" height="200" fill="#f8fafc"/>
  <rect x="20" y="95" width="160" height="10" fill="#fbbf24"/>
  <rect x="20" y="95" width="160" height="10" fill="url(#rulerGrad)"/>
  <defs>
    <linearGradient id="rulerGrad" x1="0%" y1="0%" x2="0%" y2="100%">
      <stop offset="0%" style="stop-color:#fcd34d"/>
      <stop offset="100%" style="stop-color:#f59e0b"/>
    </linearGradient>
  </defs>
  <line x1="30" y1="95" x2="30" y2="100" stroke="#92400e" stroke-width="1"/>
  <line x1="40" y1="95" x2="40" y2="98" stroke="#92400e" stroke-width="1"/>
  <line x1="50" y1="95" x2="50" y2="100" stroke="#92400e" stroke-width="1"/>
  <line x1="60" y1="95" x2="60" y2="98" stroke="#92400e" stroke-width="1"/>
  <line x1="70" y1="95" x2="70" y2="100" stroke="#92400e" stroke-width="1"/>
  <line x1="80" y1="95" x2="80" y2="98" stroke="#92400e" stroke-width="1"/>
  <line x1="90" y1="95" x2="90" y2="100" stroke="#92400e" stroke-width="1"/>
  <line x1="100" y1="95" x2="100" y2="98" stroke="#92400e" stroke-width="1"/>
  <line x1="110" y1="95" x2="110" y2="100" stroke="#92400e" stroke-width="1"/>
  <line x1="120" y1="95" x2="120" y2="98" stroke="#92400e" stroke-width="1"/>
  <line x1="130" y1="95" x2="130" y2="100" stroke="#92400e" stroke-width="1"/>
  <line x1="140" y1="95" x2="140" y2="98" stroke="#92400e" stroke-width="1"/>
  <line x1="150" y1="95" x2="150" y2="100" stroke="#92400e" stroke-width="1"/>
  <line x1="160" y1="95" x2="160" y2="98" stroke="#92400e" stroke-width="1"/>
  <line x1="170" y1="95" x2="170" y2="100" stroke="#92400e" stroke-width="1"/>
  <text x="30" y="115" font-size="6" fill="#92400e">0</text>
  <text x="70" y="115" font-size="6" fill="#92400e">10</text>
  <text x="110" y="115" font-size="6" fill="#92400e">20</text>
  <text x="150" y="115" font-size="6" fill="#92400e">30</text>
  <text x="100" y="150" font-size="10" fill="#475569" text-anchor="middle" font-weight="bold">Ruler 30cm</text>
</svg>